<svg width="1024" height="1024" viewBox="0 0 1024 1024" fill="none" xmlns="http://www.w3.org/2000/svg">
<g clip-path="url(#clip0_1_2)">
<path d="M545.5 536C775.588 536 995.482 492.356 1197.36 412.896C986.266 324.708 754.571 276 511.5 276C281.412 276 61.5181 319.644 -140.356 399.104C70.7345 487.292 302.429 536 545.5 536Z" fill="#70736B"/>
<circle cx="545.5" cy="-1244.5" r="1780.5" stroke="#290E11" stroke-width="49"/>
<path d="M-144.853 400.881C58.251 320.295 279.703 276 511.5 276C511.833 276 512.167 276 512.5 276V-63.9993C512.167 -63.9998 511.833 -64 511.5 -64C208.221 -64 -49.719 130.117 -144.853 400.881Z" fill="#DCE2D2"/>
<path d="M512.5 -63.9993V276C743.934 276.127 965.041 320.41 1167.85 400.881C1072.82 130.414 815.345 -63.5731 512.5 -63.9993Z" fill="#FF005F"/>
<circle cx="511.5" cy="2056.5" r="1780.5" stroke="#290E11" stroke-width="49"/>
<line x1="512.5" y1="-110" x2="512.5" y2="289" stroke="#290E11" stroke-width="49"/>
<path d="M372 874H646V947H372V874Z" fill="#DCE2D2"/>
<path d="M758.496 431.94L814.496 896.94H210.5L266.5 431.94H758.496Z" fill="#DCE2D2"/>
<path d="M807.684 880.93C727.126 947.206 623.96 987 511.5 987C370.821 987 244.687 924.73 159.156 826.249" stroke="#70736B" stroke-width="151"/>
<path d="M858.493 890.811C766.311 973.031 644.741 1023 511.5 1023C345.181 1023 197.048 945.142 101.557 823.885" stroke="#290E11" stroke-width="121"/>
<path d="M819.5 982C918.635 982 999 901.635 999 802.5H898C898 845.854 862.854 881 819.5 881C776.146 881 741 845.854 741 802.5H640C640 901.635 720.365 982 819.5 982Z" fill="#DCE2D2"/>
<path d="M204.5 982C303.635 982 384 901.635 384 802.5H283C283 845.854 247.854 881 204.5 881C161.146 881 126 845.854 126 802.5H25C25 901.635 105.365 982 204.5 982Z" fill="#DCE2D2"/>
<path d="M819.5 881C862.854 881 898 845.854 898 802.5C898 759.146 862.854 724 819.5 724C776.146 724 741 759.146 741 802.5C741 845.854 776.146 881 819.5 881Z" fill="#DCE2D2"/>
<path d="M204.5 881C247.854 881 283 845.854 283 802.5C283 759.146 247.854 724 204.5 724C161.146 724 126 759.146 126 802.5C126 845.854 161.146 881 204.5 881Z" fill="#DCE2D2"/>
<path d="M204.5 623C105.365 623 25 703.365 25 802.5H126C126 759.146 161.146 724 204.5 724C247.854 724 283 759.146 283 802.5H384C384 703.365 303.635 623 204.5 623Z" fill="#FF005F"/>
<path d="M819.5 623C720.365 623 640 703.365 640 802.5H741C741 759.146 776.146 724 819.5 724C862.854 724 898 759.146 898 802.5H999C999 703.365 918.635 623 819.5 623Z" fill="#FF005F"/>
<path d="M384 802.5C384 901.635 303.635 982 204.5 982C105.365 982 25 901.635 25 802.5M384 802.5C384 703.365 303.635 623 204.5 623C105.365 623 25 703.365 25 802.5M384 802.5H283M25 802.5H126M283 802.5C283 845.854 247.854 881 204.5 881C161.146 881 126 845.854 126 802.5M283 802.5C283 759.146 247.854 724 204.5 724C161.146 724 126 759.146 126 802.5M999 802.5C999 901.635 918.635 982 819.5 982C720.365 982 640 901.635 640 802.5M999 802.5C999 703.365 918.635 623 819.5 623C720.365 623 640 703.365 640 802.5M999 802.5H898M640 802.5H741M898 802.5C898 845.854 862.854 881 819.5 881C776.146 881 741 845.854 741 802.5M898 802.5C898 759.146 862.854 724 819.5 724C776.146 724 741 759.146 741 802.5M19.4286 802.5H131.638M282.389 802.5H384.186M638.714 802.5H746.75M895.175 802.5H1007" stroke="#351B00" stroke-width="49"/>
<path d="M591 581.5C591 625.407 555.407 661 511.5 661C467.593 661 432 625.407 432 581.5H591Z" fill="#FBA7CA"/>
<path d="M511.5 502C467.593 502 432 537.593 432 581.5H591C591 537.593 555.407 502 511.5 502Z" fill="#FBA7CA"/>
<path d="M537 582C537 596.359 525.583 608 511.5 608C497.417 608 486 596.359 486 582H537Z" fill="black"/>
<path d="M511.5 556C497.417 556 486 567.641 486 582H537C537 567.641 525.583 556 511.5 556Z" fill="black"/>
<path d="M266.5 431.94L248.428 582C248.428 582 408.137 612 512.498 612C616.859 612 776.568 582 776.568 582L758.496 431.94H266.5Z" fill="black" fill-opacity="0.49"/>
<ellipse cx="399.5" cy="447" rx="49.5" ry="65" fill="#CECECE"/>
<ellipse cx="400" cy="432" rx="20" ry="26" fill="black"/>
<ellipse cx="49.5" cy="65" rx="49.5" ry="65" transform="matrix(-1 0 0 1 674.996 382)" fill="#CECECE"/>
<ellipse cx="20" cy="26" rx="20" ry="26" transform="matrix(-1 0 0 1 644.996 406)" fill="black"/>
<path d="M260.101 356L242 432H771L752.899 356H260.101Z" fill="#70736B"/>
</g>
<defs>
<clipPath id="clip0_1_2">
<rect width="1024" height="1024" fill="white"/>
</clipPath>
</defs>
</svg>
